<?xml version="1.0" standalone="no"?>
<!DOCTYPE svg PUBLIC "-//W3C//DTD SVG 20010904//EN"
 "http://www.w3.org/TR/2001/REC-SVG-20010904/DTD/svg10.dtd">
<svg version="1.0" xmlns="http://www.w3.org/2000/svg"
 width="32.000000pt" height="32.000000pt" viewBox="0 0 32.000000 32.000000"
 preserveAspectRatio="xMidYMid meet">
<g transform="translate(0.000000,32.000000) scale(0.100000,-0.100000)"
fill="#000000" stroke="none">
<path d="M84 236 c-28 -28 -34 -41 -33 -72 l2 -39 7 44 c13 83 99 119 166 70
l29 -21 -28 26 c-43 39 -99 36 -143 -8z"/>
<path d="M150 230 c0 -5 5 -10 10 -10 6 0 10 5 10 10 0 6 -4 10 -10 10 -5 0
-10 -4 -10 -10z"/>
<path d="M256 180 c8 -43 14 -51 14 -19 0 13 -5 31 -10 39 -7 11 -8 5 -4 -20z"/>
<path d="M135 190 c-3 -5 -1 -10 5 -10 6 0 10 -7 8 -16 -2 -10 3 -19 10 -21 7
-3 12 4 12 16 0 12 5 21 11 21 5 0 7 5 4 10 -3 6 -15 10 -25 10 -10 0 -22 -4
-25 -10z"/>
<path d="M197 159 c7 -7 15 -10 18 -7 3 3 -2 9 -12 12 -14 6 -15 5 -6 -5z"/>
<path d="M110 132 c0 -15 11 -21 27 -15 12 5 12 7 1 14 -17 11 -28 11 -28 1z"/>
<path d="M180 130 c-12 -8 -10 -10 8 -10 13 0 20 4 17 10 -7 12 -6 12 -25 0z"/>
<path d="M237 103 c-11 -13 -29 -28 -40 -33 -15 -6 -17 -9 -6 -9 15 -1 76 55
68 63 -2 2 -12 -7 -22 -21z"/>
<path d="M69 103 c12 -24 49 -48 59 -39 3 3 0 6 -7 6 -6 0 -24 12 -38 28 -21
22 -24 23 -14 5z"/>
</g>
</svg>
